<?xml version="1.0" encoding="UTF-8"?>
<svg xmlns="http://www.w3.org/2000/svg" width="720" height="300" viewBox="0 0 720 300">
<style>
  .staff-line { stroke: #999; stroke-width: 1; }
  .barline { stroke: #333; stroke-width: 1.5; }
  .note-head { fill: #333; }
  text { font-family: "Helvetica Neue", Arial, sans-serif; }
  .label { font-size: 10px; fill: #666; }
  .title { font-size: 18px; font-weight: bold; fill: #222; }
  .subtitle { font-size: 12px; fill: #888; }
  .bracket-label { font-size: 9px; font-weight: 600; }
  .margin-label { font-size: 8px; fill: #555; }
  .pitch-label { font-size: 11px; font-weight: bold; }
</style>
<text x="130" y="35" class="title">Annotated Score Demo</text>
<text x="130" y="52" class="subtitle">C Major Scale — Constraint Overlays</text>
<g id="staff-lines">
<line x1="120" y1="80" x2="680" y2="80" stroke="#999" stroke-width="1" opacity="1.0"/>
<line x1="120" y1="92" x2="680" y2="92" stroke="#999" stroke-width="1" opacity="1.0"/>
<line x1="120" y1="104" x2="680" y2="104" stroke="#999" stroke-width="1" opacity="1.0"/>
<line x1="120" y1="116" x2="680" y2="116" stroke="#999" stroke-width="1" opacity="1.0"/>
<line x1="120" y1="128" x2="680" y2="128" stroke="#999" stroke-width="1" opacity="1.0"/>
<line x1="135" y1="134.0" x2="165" y2="134.0" stroke="#999" stroke-width="1" opacity="1.0"/>
<line x1="120" y1="80" x2="120" y2="128" stroke="#333" stroke-width="1.5" opacity="1.0"/>
<line x1="680" y1="80" x2="680" y2="128" stroke="#333" stroke-width="1.5" opacity="1.0"/>
</g>
<g id="constraint-snap">
<circle cx="150" cy="134.0" r="11.5" fill="#4A90D9" opacity="0.2"/>
<circle cx="150" cy="134.0" r="8.5" fill="#4A90D9" opacity="0.32000000000000006"/>
<line x1="130" y1="122.0" x2="170" y2="122.0" stroke="#4A90D9" stroke-width="0.5" opacity="0.3"/>
<line x1="130" y1="146.0" x2="170" y2="146.0" stroke="#4A90D9" stroke-width="0.5" opacity="0.3"/>
<text x="150" y="118.5" class="margin-label" fill="#4A90D9" font-size="8">d=0</text>
<circle cx="220" cy="128.0" r="11.5" fill="#4A90D9" opacity="0.225"/>
<circle cx="220" cy="128.0" r="8.5" fill="#4A90D9" opacity="0.36000000000000004"/>
<line x1="200" y1="116.0" x2="240" y2="116.0" stroke="#4A90D9" stroke-width="0.5" opacity="0.3"/>
<line x1="200" y1="140.0" x2="240" y2="140.0" stroke="#4A90D9" stroke-width="0.5" opacity="0.3"/>
<text x="220" y="112.5" class="margin-label" fill="#4A90D9" font-size="8">d=1</text>
<circle cx="290" cy="122.0" r="11.5" fill="#4A90D9" opacity="0.175"/>
<circle cx="290" cy="122.0" r="8.5" fill="#4A90D9" opacity="0.27999999999999997"/>
<line x1="270" y1="110.0" x2="310" y2="110.0" stroke="#4A90D9" stroke-width="0.5" opacity="0.3"/>
<line x1="270" y1="134.0" x2="310" y2="134.0" stroke="#4A90D9" stroke-width="0.5" opacity="0.3"/>
<text x="290" y="106.5" class="margin-label" fill="#4A90D9" font-size="8">d=2</text>
<circle cx="360" cy="116.0" r="11.5" fill="#4A90D9" opacity="0.2125"/>
<circle cx="360" cy="116.0" r="8.5" fill="#4A90D9" opacity="0.34"/>
<line x1="340" y1="104.0" x2="380" y2="104.0" stroke="#4A90D9" stroke-width="0.5" opacity="0.3"/>
<line x1="340" y1="128.0" x2="380" y2="128.0" stroke="#4A90D9" stroke-width="0.5" opacity="0.3"/>
<text x="360" y="100.5" class="margin-label" fill="#4A90D9" font-size="8">d=3</text>
<circle cx="430" cy="110.0" r="11.5" fill="#4A90D9" opacity="0.2375"/>
<circle cx="430" cy="110.0" r="8.5" fill="#4A90D9" opacity="0.38"/>
<line x1="410" y1="98.0" x2="450" y2="98.0" stroke="#4A90D9" stroke-width="0.5" opacity="0.3"/>
<line x1="410" y1="122.0" x2="450" y2="122.0" stroke="#4A90D9" stroke-width="0.5" opacity="0.3"/>
<text x="430" y="94.5" class="margin-label" fill="#4A90D9" font-size="8">d=4</text>
<circle cx="500" cy="104.0" r="11.5" fill="#4A90D9" opacity="0.1875"/>
<circle cx="500" cy="104.0" r="8.5" fill="#4A90D9" opacity="0.30000000000000004"/>
<line x1="480" y1="92.0" x2="520" y2="92.0" stroke="#4A90D9" stroke-width="0.5" opacity="0.3"/>
<line x1="480" y1="116.0" x2="520" y2="116.0" stroke="#4A90D9" stroke-width="0.5" opacity="0.3"/>
<text x="500" y="88.5" class="margin-label" fill="#4A90D9" font-size="8">d=5</text>
</g>
<g id="constraint-funnel">
<circle cx="430" cy="110.0" r="15.5" fill="#2ECC71" opacity="0.15"/>
<circle cx="430" cy="110.0" r="10.5" fill="#2ECC71" opacity="0.25"/>
<text x="430" y="137.5" class="margin-label" fill="#2ECC71" font-size="8" font-weight="bold">⟵ target</text>
<line x1="367.47259986781313" y1="115.35949143990173" x2="420.53470683410336" y2="110.81131084279114" stroke="#2ECC71" stroke-width="1.8" opacity="0.357"/>
<polygon points="(420.53470683410336, 110.81131084279114) (415.2280712498427, 113.61124276622402) (414.82898999911, 108.95529484100861)" fill="#2ECC71" opacity="0.357"/>
<line x1="492.52740013218687" y1="104.64050856009827" x2="439.46529316589664" y2="109.18868915720886" stroke="#2ECC71" stroke-width="2.2" opacity="0.5529999999999999"/>
<polygon points="(439.46529316589664, 109.18868915720886) (444.7719287501573, 106.38875723377598) (445.17101000089, 111.04470515899139)" fill="#2ECC71" opacity="0.5529999999999999"/>
<line x1="562.5274001321868" y1="98.64050856009827" x2="439.46529316589664" y2="109.18868915720886" stroke="#2ECC71" stroke-width="2.35" opacity="0.6265"/>
<polygon points="(439.46529316589664, 109.18868915720886) (444.7719287501573, 106.38875723377598) (445.17101000089, 111.04470515899139)" fill="#2ECC71" opacity="0.6265"/>
<line x1="632.5274001321868" y1="92.64050856009827" x2="439.46529316589664" y2="109.18868915720886" stroke="#2ECC71" stroke-width="2.5" opacity="0.7"/>
<polygon points="(439.46529316589664, 109.18868915720886) (444.7719287501573, 106.38875723377598) (445.17101000089, 111.04470515899139)" fill="#2ECC71" opacity="0.7"/>
</g>
<g id="constraint-consensus">
<line x1="290" y1="122.0" x2="430" y2="110.0" stroke="#F1C40F" stroke-width="1.5" opacity="0.6" stroke-dasharray="4,3"/>
<circle cx="360.0" cy="116.0" r="4" fill="#F1C40F" opacity="0.4"/>
<text x="367.0" y="119.0" fill="#F1C40F" font-size="9">⊙</text>
<line x1="360" y1="116.0" x2="500" y2="104.0" stroke="#F1C40F" stroke-width="1.5" opacity="0.6" stroke-dasharray="4,3"/>
<circle cx="430.0" cy="110.0" r="4" fill="#F1C40F" opacity="0.4"/>
<text x="437.0" y="113.0" fill="#F1C40F" font-size="9">⊙</text>
</g>
<g id="notes">
<circle cx="150" cy="134.0" r="5.5" fill="#4A90D9" opacity="1.0"/>
<circle cx="150" cy="134.0" r="5.5" fill="none" opacity="1.0" stroke="#4A90D9" stroke-width="0.5"/>
<line x1="155.5" y1="134.0" x2="155.5" y2="104.0" stroke="#4A90D9" stroke-width="1.2" opacity="1.0"/>
<text x="150" y="167.5" class="pitch-label" fill="#4A90D9" font-size="10" text-anchor="middle" font-weight="bold">C4</text>
<circle cx="220" cy="128.0" r="5.5" fill="#4A90D9" opacity="1.0"/>
<circle cx="220" cy="128.0" r="5.5" fill="none" opacity="1.0" stroke="#4A90D9" stroke-width="0.5"/>
<line x1="225.5" y1="128.0" x2="225.5" y2="98.0" stroke="#4A90D9" stroke-width="1.2" opacity="1.0"/>
<text x="220" y="161.5" class="pitch-label" fill="#4A90D9" font-size="10" text-anchor="middle" font-weight="bold">D4</text>
<circle cx="290" cy="122.0" r="5.5" fill="#4A90D9" opacity="1.0"/>
<circle cx="290" cy="122.0" r="5.5" fill="none" opacity="1.0" stroke="#4A90D9" stroke-width="0.5"/>
<line x1="295.5" y1="122.0" x2="295.5" y2="92.0" stroke="#4A90D9" stroke-width="1.2" opacity="1.0"/>
<text x="290" y="155.5" class="pitch-label" fill="#4A90D9" font-size="10" text-anchor="middle" font-weight="bold">E4</text>
<circle cx="360" cy="116.0" r="5.5" fill="#3AA89E" opacity="1.0"/>
<circle cx="360" cy="116.0" r="5.5" fill="none" opacity="1.0" stroke="#3AA89E" stroke-width="0.5"/>
<line x1="365.5" y1="116.0" x2="365.5" y2="86.0" stroke="#3AA89E" stroke-width="1.2" opacity="1.0"/>
<text x="360" y="149.5" class="pitch-label" fill="#3AA89E" font-size="10" text-anchor="middle" font-weight="bold">F4</text>
<circle cx="430" cy="110.0" r="5.5" fill="#3AA89E" opacity="1.0"/>
<circle cx="430" cy="110.0" r="5.5" fill="none" opacity="1.0" stroke="#3AA89E" stroke-width="0.5"/>
<line x1="435.5" y1="110.0" x2="435.5" y2="80.0" stroke="#3AA89E" stroke-width="1.2" opacity="1.0"/>
<text x="430" y="143.5" class="pitch-label" fill="#3AA89E" font-size="10" text-anchor="middle" font-weight="bold">G4</text>
<circle cx="500" cy="104.0" r="5.5" fill="#3AA89E" opacity="1.0"/>
<circle cx="500" cy="104.0" r="5.5" fill="none" opacity="1.0" stroke="#3AA89E" stroke-width="0.5"/>
<line x1="494.5" y1="104.0" x2="494.5" y2="134.0" stroke="#3AA89E" stroke-width="1.2" opacity="1.0"/>
<text x="500" y="137.5" class="pitch-label" fill="#3AA89E" font-size="10" text-anchor="middle" font-weight="bold">A4</text>
<circle cx="570" cy="98.0" r="5.5" fill="#2ECC71" opacity="1.0"/>
<circle cx="570" cy="98.0" r="5.5" fill="none" opacity="1.0" stroke="#2ECC71" stroke-width="0.5"/>
<line x1="564.5" y1="98.0" x2="564.5" y2="128.0" stroke="#2ECC71" stroke-width="1.2" opacity="1.0"/>
<text x="570" y="131.5" class="pitch-label" fill="#2ECC71" font-size="10" text-anchor="middle" font-weight="bold">B4</text>
<circle cx="640" cy="92.0" r="5.5" fill="#2ECC71" opacity="1.0"/>
<circle cx="640" cy="92.0" r="5.5" fill="none" opacity="1.0" stroke="#2ECC71" stroke-width="0.5"/>
<line x1="634.5" y1="92.0" x2="634.5" y2="122.0" stroke="#2ECC71" stroke-width="1.2" opacity="1.0"/>
<text x="640" y="125.5" class="pitch-label" fill="#2ECC71" font-size="10" text-anchor="middle" font-weight="bold">C5</text>
</g>
<g id="brackets">
<line x1="135" y1="55" x2="515" y2="55" stroke="#4A90D9" stroke-width="2" opacity="1.0"/>
<line x1="135" y1="55" x2="135" y2="60" stroke="#4A90D9" stroke-width="2" opacity="1.0"/>
<line x1="515" y1="55" x2="515" y2="60" stroke="#4A90D9" stroke-width="2" opacity="1.0"/>
<text x="325.0" y="50" class="bracket-label" fill="#4A90D9" font-size="9" text-anchor="middle">SNAP (Tonnetz lattice)</text>
<line x1="345" y1="35" x2="655" y2="35" stroke="#2ECC71" stroke-width="2" opacity="1.0"/>
<line x1="345" y1="35" x2="345" y2="40" stroke="#2ECC71" stroke-width="2" opacity="1.0"/>
<line x1="655" y1="35" x2="655" y2="40" stroke="#2ECC71" stroke-width="2" opacity="1.0"/>
<text x="500.0" y="30" class="bracket-label" fill="#2ECC71" font-size="9" text-anchor="middle">FUNNEL → G4</text>
</g>
<g id="annotations">
<rect x="8" y="70" width="100" height="80" fill="#f0f0f0" opacity="0.8" rx="4"/>
<text x="13" y="85" class="margin-label" fill="#333" font-size="8" font-weight="bold">Constraint Parameters</text>
<text x="13" y="98" class="margin-label" fill="#4A90D9" font-size="8">SNAP: lattice d=7</text>
<text x="13" y="110" class="margin-label" fill="#2ECC71" font-size="8">FUNNEL: target=G4</text>
<text x="13" y="122" class="margin-label" fill="#2ECC71" font-size="7">  pull=0.6, db=0.05</text>
<text x="13" y="135" class="margin-label" fill="#F1C40F" font-size="8">CONSENSUS: tol=0.1</text>
<text x="13" y="152" class="margin-label" fill="#999" font-size="7">Lattice:</text>
<circle cx="33" cy="162" r="3" fill="#4A90D9" opacity="0.7"/>
<circle cx="47" cy="162" r="3" fill="#ddd" opacity="0.3"/>
<circle cx="61" cy="162" r="3" fill="#4A90D9" opacity="0.7"/>
<circle cx="33" cy="172" r="3" fill="#ddd" opacity="0.3"/>
<circle cx="47" cy="172" r="3" fill="#4A90D9" opacity="0.7"/>
<circle cx="61" cy="172" r="3" fill="#ddd" opacity="0.3"/>
<circle cx="33" cy="182" r="3" fill="#4A90D9" opacity="0.7"/>
<circle cx="47" cy="182" r="3" fill="#ddd" opacity="0.3"/>
<circle cx="61" cy="182" r="3" fill="#4A90D9" opacity="0.7"/>
</g>
<g id="legend">
<text x="120" y="158" font-size="10" font-weight="bold">Legend:</text>
<circle cx="126" cy="171" r="4" fill="#4A90D9" opacity="1.0"/>
<text x="136" y="174" fill="#4A90D9" font-size="9">Snap — lattice quantization</text>
<circle cx="126" cy="185" r="4" fill="#2ECC71" opacity="1.0"/>
<text x="136" y="188" fill="#2ECC71" font-size="9">Funnel — gravitational pull toward target</text>
<circle cx="126" cy="199" r="4" fill="#F1C40F" opacity="1.0"/>
<text x="136" y="202" fill="#F1C40F" font-size="9">Consensus — voice agreement</text>
<text x="120" y="218" fill="#999" font-size="8">Patterns: ⊞ Snap  ↘ Funnel  ⊙ Consensus</text>
</g>
</svg>
